{
	"asset":{
		"version":"2.0",
		"generator":"Created using the official Cinema 4D glTF Exporter 1.000x284978"
	},
	"samplers":[{
		"magFilter":9729,
		"minFilter":9729,
		"wrapS":10497,
		"wrapT":10497
	}],
	"scenes":[{
		"nodes":[0]
	}],
	"nodes":[{
		"name":"Mesh",
		"mesh":0
	}],
	"buffers":[{
		"uri":"data:application/octet-stream;base64,",
		"byteLength":20448
	}],
	"meshes":[{
		"name":"Mesh",
		"primitives":[{
			"attributes":{
				"POSITION":1,
				"NORMAL":2,
				"TEXCOORD_0":3
			},
			"indices":0,
			"material":0
		}]
	}],
	"accessors":[{
		"bufferView":0,
		"type":"SCALAR",
		"componentType":5123,
		"min":[0],
		"count":1695,
		"byteOffset":0,
		"max":[532]
	},
	{
		"bufferView":1,
		"type":"VEC3",
		"componentType":5126,
		"min":[-0.5370510220527649,
		-0.9197189807891846,
		-0.14919200539588929],
		"count":533,
		"byteOffset":0,
		"max":[0.5370510220527649,
		0.921658992767334,
		0.16569599509239198]
	},
	{
		"bufferView":1,
		"type":"VEC3",
		"componentType":5126,
		"min":[-0.9987500309944153,
		-0.9940313100814819,
		-0.9996563196182251],
		"count":533,
		"byteOffset":12,
		"max":[0.9980000257492065,
		0.9781875610351563,
		0.9983750581741333]
	},
	{
		"bufferView":1,
		"type":"VEC2",
		"componentType":5126,
		"min":[0.0,
		0.0],
		"count":533,
		"byteOffset":24,
		"max":[0.9951030015945435,
		0.9891271591186523]
	}],
	"bufferViews":[{
		"buffer":0,
		"byteOffset":0,
		"byteLength":3390,
		"target":34963
	},
	{
		"buffer":0,
		"byteOffset":3392,
		"byteLength":17056,
		"target":34962,
		"byteStride":32
	}],
	"images":[{
		"uri":"data:image/jpeg;base64,"
	}],
	"textures":[{
		"sampler":0,
		"source":0
	}],
	"materials":[{
		"pbrMetallicRoughness":{
			"baseColorTexture":{
				"index":0
			},
			"baseColorFactor":[1.0,
			1.0,
			1.0,
			1.0],
			"metallicFactor":1.0,
			"roughnessFactor":1.0
		},
		"emissiveFactor":[0.0,
		0.0,
		0.0],
		"alphaMode":"OPAQUE",
		"doubleSided":true,
		"name":"default"
	}]
}